<svg width="58" height="51" viewBox="0 0 58 51" fill="none" xmlns="http://www.w3.org/2000/svg">
<path d="M39.9287 31.4433C39.2304 30.8907 38.6308 30.2214 38.1558 29.4644C36.543 27.2914 34.3157 24.2906 28.9844 24.2906C23.653 24.2906 21.4322 27.2785 19.8193 29.4644C19.344 30.2231 18.742 30.8926 18.0401 31.4433C13.048 34.5734 10.6031 38.3244 10.6031 42.8773C10.6031 46.9774 14.584 51 18.6417 51C23.045 51 24.9843 49.6095 26.3987 48.6007C27.3139 47.954 27.9155 47.5142 28.9588 47.5142C30.002 47.5142 30.6292 47.9475 31.5188 48.6007C32.9397 49.6095 34.8789 51 39.2759 51C43.3336 51 47.3209 46.9774 47.3209 42.8773C47.3593 38.3244 44.9272 34.5734 39.9287 31.4433ZM39.2887 48.6783C35.6214 48.6783 34.1685 47.6306 32.8885 46.7381C31.8157 45.7633 30.4239 45.2239 28.9812 45.2239C27.5384 45.2239 26.1467 45.7633 25.0739 46.7381C23.7939 47.6629 22.3154 48.6783 18.6417 48.6783C15.8512 48.6783 12.8816 45.6969 12.8816 42.8578C12.8816 39.178 14.9552 36.0803 19.2305 33.3964C20.1861 32.6942 21.0025 31.8167 21.637 30.8095C23.173 28.7336 24.7603 26.58 28.9588 26.58C33.1573 26.58 34.7509 28.7336 36.287 30.8095C36.9215 31.8167 37.7379 32.6942 38.6934 33.3964C42.9624 36.0803 45.0424 39.178 45.0424 42.8578C45.0488 45.6969 42.1111 48.6783 39.2887 48.6783Z" fill="#EDB24E"/>
<path d="M12.6828 25.5518C11.2684 20.2099 7.47311 16.75 4.05542 17.6748C2.31457 18.1469 1.00893 19.6149 0.368915 21.8978C-0.159332 24.1922 -0.119742 26.5827 0.484192 28.8579C1.08813 31.1331 2.23778 33.2228 3.83141 34.9421C4.90796 36.1104 6.39422 36.8068 7.97232 36.8822C8.35721 36.882 8.74034 36.8298 9.11155 36.727C12.5292 35.8087 14.1037 30.9001 12.6828 25.5518ZM8.51634 34.4958C7.2363 34.8321 6.04586 33.8491 5.42505 33.2735C4.12964 31.8484 3.19466 30.1277 2.69984 28.2583C2.20502 26.389 2.16505 24.4264 2.58337 22.5381C2.81377 21.7038 3.3962 20.2616 4.65063 19.9512C4.81986 19.9067 4.99417 19.8849 5.16904 19.8865C7.00589 19.8865 9.41235 22.2147 10.4684 26.1856C11.6204 30.5121 10.3916 33.9849 8.51634 34.4958Z" fill="#EDB24E"/>
<path d="M19.352 23.1459C23.4609 23.1459 26.6801 18.0628 26.6801 11.5697C26.6801 5.07672 23.4801 0 19.352 0C15.2238 0 12.0238 5.08319 12.0238 11.5697C12.0238 18.0563 15.243 23.1459 19.352 23.1459ZM19.352 2.32172C22.0784 2.32172 24.3889 6.5577 24.3889 11.5697C24.3889 16.5818 22.0784 20.8242 19.352 20.8242C16.6255 20.8242 14.3278 16.5882 14.3278 11.5697C14.3278 6.55123 16.6255 2.32172 19.352 2.32172Z" fill="#EDB24E"/>
<path d="M38.6101 23.1459C42.719 23.1459 45.9383 18.0628 45.9383 11.5697C45.9383 5.07672 42.7382 0 38.6101 0C34.482 0 31.2755 5.08319 31.2755 11.5697C31.2755 18.0563 34.4948 23.1459 38.6101 23.1459ZM38.6101 2.32172C41.3366 2.32172 43.6406 6.5577 43.6406 11.5697C43.6406 16.5818 41.3366 20.8242 38.6101 20.8242C35.8836 20.8242 33.5732 16.5882 33.5732 11.5697C33.5732 6.55123 35.8772 2.32172 38.6101 2.32172Z" fill="#EDB24E"/>
<path d="M53.9067 17.6746C52.1658 17.209 50.2906 17.8428 48.6265 19.4725C47.0285 21.189 45.876 23.2785 45.2719 25.5546C44.6677 27.8307 44.6306 30.2226 45.164 32.5167C45.8041 34.7673 47.0841 36.2612 48.8505 36.7333C49.2177 36.8339 49.5966 36.884 49.977 36.8821C53.0683 36.8821 56.2171 33.6485 57.478 28.8563C58.8988 23.5144 57.3244 18.6059 53.9067 17.6746ZM55.2891 28.2549C54.1307 32.6137 51.3466 35.0001 49.4714 34.4957C48.1913 34.1529 47.6345 32.7108 47.3977 31.9088C46.9813 30.0199 47.0228 28.0573 47.5187 26.1881C48.0146 24.3189 48.9502 22.5985 50.2458 21.1734C50.9142 20.4409 51.8248 19.9808 52.8058 19.8799C52.9872 19.8817 53.1677 19.9056 53.3435 19.9511C55.1867 20.4296 56.4155 23.896 55.2891 28.2549Z" fill="#EDB24E"/>
</svg>
