<svg width="78" height="68" viewBox="0 0 78 68" fill="none" xmlns="http://www.w3.org/2000/svg">
<path d="M53.6972 41.9244C52.7581 41.1875 51.9517 40.2951 51.313 39.2858C49.144 36.3885 46.1487 32.3875 38.979 32.3875C31.8093 32.3875 28.8226 36.3713 26.6536 39.2858C26.0144 40.2974 25.2048 41.1902 24.2608 41.9244C17.5472 46.0979 14.2593 51.0992 14.2593 57.1697C14.2593 62.6366 19.613 68 25.0699 68C30.9916 68 33.5995 66.1461 35.5017 64.8009C36.7325 63.9386 37.5416 63.3523 38.9446 63.3523C40.3475 63.3523 41.191 63.93 42.3874 64.8009C44.2982 66.1461 46.9062 68 52.8193 68C58.2762 68 63.6384 62.6366 63.6384 57.1697C63.69 51.0992 60.4193 46.0979 53.6972 41.9244ZM52.8365 64.9044C47.9046 64.9044 45.9508 63.5075 44.2293 62.3175C42.7866 61.0177 40.915 60.2986 38.9747 60.2986C37.0344 60.2986 35.1628 61.0177 33.7201 62.3175C31.9986 63.5506 30.0104 64.9044 25.0699 64.9044C21.3172 64.9044 17.3235 60.9292 17.3235 57.1438C17.3235 52.2374 20.1122 48.107 25.8617 44.5285C27.1469 43.5923 28.2447 42.4222 29.098 41.0794C31.1637 38.3115 33.2983 35.4401 38.9446 35.4401C44.5908 35.4401 46.734 38.3115 48.7997 41.0794C49.653 42.4222 50.7509 43.5923 52.036 44.5285C57.777 48.107 60.5743 52.2374 60.5743 57.1438C60.5829 60.9292 56.6322 64.9044 52.8365 64.9044Z" fill="#EDB24E"/>
<path d="M17.0562 34.069C15.1541 26.9465 10.05 22.3333 5.45384 23.5664C3.1127 24.1958 1.35684 26.1532 0.496127 29.1971C-0.214274 32.2562 -0.161032 35.4436 0.651154 38.4772C1.46334 41.5108 3.00943 44.2971 5.15259 46.5894C6.60037 48.1473 8.59913 49.0757 10.7214 49.1763C11.239 49.176 11.7543 49.1064 12.2535 48.9693C16.8497 47.7449 18.967 41.2001 17.0562 34.069ZM11.453 45.9944C9.73158 46.4428 8.13064 45.1321 7.29575 44.3647C5.55366 42.4645 4.29626 40.1703 3.63081 37.6778C2.96537 35.1853 2.91162 32.5686 3.47419 30.0508C3.78404 28.9384 4.5673 27.0155 6.2543 26.6016C6.48188 26.5422 6.7163 26.5132 6.95147 26.5154C9.42171 26.5154 12.658 29.6196 14.0782 34.9141C15.6274 40.6828 13.9749 45.3132 11.453 45.9944Z" fill="#EDB24E"/>
<path d="M26.025 30.8613C31.5508 30.8613 35.8802 24.0837 35.8802 15.4263C35.8802 6.76896 31.5766 0 26.025 0C20.4734 0 16.1699 6.77758 16.1699 15.4263C16.1699 24.0751 20.4993 30.8613 26.025 30.8613ZM26.025 3.09563C29.6917 3.09563 32.7988 8.7436 32.7988 15.4263C32.7988 22.109 29.6917 27.7656 26.025 27.7656C22.3584 27.7656 19.2684 22.1177 19.2684 15.4263C19.2684 8.73497 22.3584 3.09563 26.025 3.09563Z" fill="#EDB24E"/>
<path d="M51.9239 30.8613C57.4497 30.8613 61.7791 24.0837 61.7791 15.4263C61.7791 6.76896 57.4755 0 51.9239 0C46.3723 0 42.0602 6.77758 42.0602 15.4263C42.0602 24.0751 46.3895 30.8613 51.9239 30.8613ZM51.9239 3.09563C55.5906 3.09563 58.6891 8.7436 58.6891 15.4263C58.6891 22.109 55.5906 27.7656 51.9239 27.7656C48.2573 27.7656 45.1501 22.1177 45.1501 15.4263C45.1501 8.73497 48.2487 3.09563 51.9239 3.09563Z" fill="#EDB24E"/>
<path d="M72.4952 23.5662C70.154 22.9453 67.6322 23.7904 65.3943 25.9633C63.2453 28.2519 61.6954 31.038 60.8828 34.0728C60.0703 37.1076 60.0205 40.2968 60.7378 43.3556C61.5986 46.3564 63.32 48.3483 65.6956 48.9778C66.1893 49.1119 66.6989 49.1786 67.2104 49.1761C71.3677 49.1761 75.6024 44.8646 77.298 38.4751C79.2088 31.3526 77.0914 24.8079 72.4952 23.5662ZM74.3543 37.6732C72.7964 43.485 69.0523 46.6668 66.5304 45.9942C64.809 45.5372 64.0602 43.6143 63.7418 42.5451C63.1818 40.0266 63.2376 37.4098 63.9045 34.9175C64.5714 32.4253 65.8296 30.1314 67.5719 28.2312C68.4709 27.2545 69.6955 26.6411 71.0148 26.5066C71.2587 26.5089 71.5014 26.5408 71.7378 26.6014C74.2166 27.2395 75.8692 31.8613 74.3543 37.6732Z" fill="#EDB24E"/>
</svg>
